{
  "asset": {
    "generator": "glTF-Transform v4.4.1",
    "version": "2.0"
  },
  "accessors": [
    {
      "type": "VEC3",
      "componentType": 5126,
      "count": 7309,
      "max": [
        -1.3875763416290283,
        3.198263645172119,
        1.5445365905761719
      ],
      "min": [
        -2.310089349746704,
        2.72560715675354,
        -1.71331787109375
      ],
      "bufferView": 0,
      "byteOffset": 0
    },
    {
      "type": "VEC3",
      "componentType": 5126,
      "count": 7309,
      "bufferView": 0,
      "byteOffset": 12
    },
    {
      "type": "VEC2",
      "componentType": 5126,
      "count": 7309,
      "bufferView": 0,
      "byteOffset": 24
    },
    {
      "type": "SCALAR",
      "componentType": 5123,
      "count": 36951,
      "bufferView": 1,
      "byteOffset": 0
    }
  ],
  "bufferViews": [
    {
      "buffer": 0,
      "byteOffset": 0,
      "byteLength": 233888,
      "byteStride": 32,
      "target": 34962
    },
    {
      "buffer": 0,
      "byteOffset": 233888,
      "byteLength": 73904,
      "target": 34963
    }
  ],
  "samplers": [
    {
      "magFilter": 9729,
      "minFilter": 9987,
      "wrapS": 10497,
      "wrapT": 10497
    }
  ],
  "textures": [
    {
      "source": 1,
      "sampler": 0
    },
    {
      "source": 0,
      "sampler": 0
    },
    {
      "source": 2,
      "sampler": 0
    }
  ],
  "images": [
    {
      "name": "dirt_floor_nor_gl_4k",
      "mimeType": "image/png",
      "uri": "normal_1.png"
    },
    {
      "name": "dirt_floor_diff_4k",
      "mimeType": "image/jpeg",
      "uri": "baseColor_1.jpg"
    },
    {
      "name": "dirt_floor_rough_4k",
      "mimeType": "image/png",
      "uri": "metallicRoughness_1.png"
    }
  ],
  "buffers": [
    {
      "uri": "Obstacle-arch.bin",
      "byteLength": 307792
    }
  ],
  "materials": [
    {
      "name": "Mat.2",
      "doubleSided": true,
      "pbrMetallicRoughness": {
        "metallicFactor": 0,
        "baseColorTexture": {
          "index": 0
        },
        "metallicRoughnessTexture": {
          "index": 2
        }
      },
      "normalTexture": {
        "index": 1
      },
      "extensions": {
        "KHR_materials_specular": {
          "specularFactor": 0,
          "specularColorFactor": [
            0.008568127639591694,
            0.035601332783699036,
            0.003676507854834199
          ]
        }
      }
    }
  ],
  "meshes": [
    {
      "name": "Cube_1_7_Mat.2_0",
      "primitives": [
        {
          "attributes": {
            "POSITION": 0,
            "NORMAL": 1,
            "TEXCOORD_0": 2
          },
          "mode": 4,
          "material": 0,
          "indices": 3
        }
      ]
    }
  ],
  "nodes": [
    {
      "name": "Cube_1_7_Mat.2_0",
      "mesh": 0
    }
  ],
  "scenes": [
    {
      "name": "Scene",
      "nodes": [
        0
      ]
    }
  ],
  "scene": 0,
  "extensionsUsed": [
    "KHR_materials_specular"
  ]
}